HIERARCHY
ROOT Hips
{
	OFFSET 0.000000 0.000000 0.000000
	CHANNELS 6 Xposition Yposition Zposition Zrotation Yrotation Xrotation 
	JOINT LHipJoint
	{
		OFFSET 0.000000 0.000000 0.000000
		CHANNELS 3 Zrotation Yrotation Xrotation
		JOINT LeftUpLeg
		{
			OFFSET 8.178360 -10.767780 5.035740
			CHANNELS 3 Zrotation Yrotation Xrotation
			JOINT LeftLeg
			{
				OFFSET 14.688660 -40.356780 0.000000
				CHANNELS 3 Zrotation Yrotation Xrotation
				JOINT LeftFoot
				{
					OFFSET 15.373200 -42.237540 0.000000
					CHANNELS 3 Zrotation Yrotation Xrotation
					JOINT LeftToeBase
					{
						OFFSET 0.945840 -2.598660 13.935300
						CHANNELS 3 Zrotation Yrotation Xrotation
						End Site
						{
							OFFSET 0.000000 0.000000 0.000000
						}
					}
				}
			}
		}
	}
	JOINT RHipJoint
	{
		OFFSET 0.000000 0.000000 0.000000
		CHANNELS 3 Zrotation Yrotation Xrotation
		JOINT RightUpLeg
		{
			OFFSET -7.833120 -10.767780 5.035740
			CHANNELS 3 Zrotation Yrotation Xrotation
			JOINT RightLeg
			{
				OFFSET -15.255180 -41.913300 0.000000
				CHANNELS 3 Zrotation Yrotation Xrotation
				JOINT RightFoot
				{
					OFFSET -15.409560 -42.337380 0.000000
					CHANNELS 3 Zrotation Yrotation Xrotation
					JOINT RightToeBase
					{
						OFFSET -0.988380 -2.715540 14.178900
						CHANNELS 3 Zrotation Yrotation Xrotation
						End Site
						{
							OFFSET 0.000000 0.000000 0.000000
						}
					}
				}
			}
		}
	}
	JOINT LowerBack
	{
		OFFSET 0.000000 0.000000 0.000000
		CHANNELS 3 Zrotation Yrotation Xrotation
		JOINT Spine
		{
			OFFSET 0.169620 12.213540 -1.160280
			CHANNELS 3 Zrotation Yrotation Xrotation
			JOINT Spine1
			{
				OFFSET 0.340320 12.293100 -0.256500
				CHANNELS 3 Zrotation Yrotation Xrotation
				JOINT Neck
				{
					OFFSET 0.000000 0.000000 0.000000
					CHANNELS 3 Zrotation Yrotation Xrotation
					JOINT Neck1
					{
						OFFSET -0.325020 10.477440 1.032120
						CHANNELS 3 Zrotation Yrotation Xrotation
						JOINT Head
						{
							OFFSET 0.624420 10.568160 -0.743820
							CHANNELS 3 Zrotation Yrotation Xrotation
							End Site
							{
								OFFSET 0.000000 0.000000 0.000000
							}
						}
					}
				}
				JOINT LeftShoulder
				{
					OFFSET 0.000000 0.000000 0.000000
					CHANNELS 3 Zrotation Yrotation Xrotation
					JOINT LeftArm
					{
						OFFSET 20.174460 7.205340 -1.867260
						CHANNELS 3 Zrotation Yrotation Xrotation
						JOINT LeftForeArm
						{
							OFFSET 29.898000 -0.000000 -0.000000
							CHANNELS 3 Zrotation Yrotation Xrotation
							JOINT LeftHand
							{
								OFFSET 20.901360 -0.000000 -0.000000
								CHANNELS 3 Zrotation Yrotation Xrotation
								JOINT LeftFingerBase
								{
									OFFSET 0.000000 0.000000 0.000000
									CHANNELS 3 Zrotation Yrotation Xrotation
									JOINT LeftHandIndex1
									{
										OFFSET 4.291560 -0.000000 -0.000000
										CHANNELS 3 Zrotation Yrotation Xrotation
										End Site
										{
											OFFSET 0.000000 0.000000 0.000000
										}
									}
								}
								JOINT LThumb
								{
									OFFSET 0.000000 0.000000 0.000000
									CHANNELS 3 Zrotation Yrotation Xrotation
									End Site
									{
										OFFSET 0.000000 0.000000 0.000000
									}
								}
							}
						}
					}
				}
				JOINT RightShoulder
				{
					OFFSET 0.000000 0.000000 0.000000
					CHANNELS 3 Zrotation Yrotation Xrotation
					JOINT RightArm
					{
						OFFSET -18.819600 8.244300 -2.427900
						CHANNELS 3 Zrotation Yrotation Xrotation
						JOINT RightForeArm
						{
							OFFSET -31.451400 -0.000000 -0.000000
							CHANNELS 3 Zrotation Yrotation Xrotation
							JOINT RightHand
							{
								OFFSET -20.665020 -0.000000 -0.000000
								CHANNELS 3 Zrotation Yrotation Xrotation
								JOINT RightFingerBase
								{
									OFFSET 0.000000 0.000000 0.000000
									CHANNELS 3 Zrotation Yrotation Xrotation
									JOINT RightHandIndex1
									{
										OFFSET -3.735180 -0.000000 -0.000000
										CHANNELS 3 Zrotation Yrotation Xrotation
										End Site
										{
											OFFSET 0.000000 0.000000 0.000000
										}
									}
								}
								JOINT RThumb
								{
									OFFSET 0.000000 0.000000 0.000000
									CHANNELS 3 Zrotation Yrotation Xrotation
									End Site
									{
										OFFSET 0.000000 0.000000 0.000000
									}
								}
							}
						}
					}
				}
			}
		}
	}
}
MOTION
Frames:	5
Frame Time:	0.0333333
65.359212 106.149438 -162.044010 -5.899833 -6.989721 1.794849 0.877204 0.913187 0.264779 -9.071380 -9.454044 -31.385505 2.619818 12.079246 33.782235 -2.149462 10.936224 6.311890 0.128400 -2.309700 -6.362300 -2.369688 -2.634001 1.272359 35.428008 2.170534 8.068017 -0.095434 -3.767440 14.377802 -0.614109 1.694975 -2.698529 -0.200200 -2.881500 7.949000 5.008882 1.728935 5.505087 1.964454 2.249865 -1.832905 3.213756 1.665085 -3.716249 -6.716638 -3.985485 -8.843214 4.789516 -4.887507 14.680901 2.928300 -2.633200 9.511600 -7.302667 3.142431 -2.430841 -82.653891 6.697990 22.281789 10.477763 -20.313594 -2.392379 -0.885953 -3.386895 9.540074 12.586195 22.594591 5.778400 -7.125000 0.000000 0.000000 -18.263800 55.750600 -4.936200 5.793759 -1.870032 -2.158167 78.312777 3.254724 19.895942 -17.382160 25.732399 -5.432218 0.891750 0.512308 5.434816 -13.083490 2.407166 -0.444200 7.125000 0.000000 0.000000 9.758400 -28.084700 4.069800 
64.923024 105.738438 -155.942310 -5.778063 -8.923239 3.015546 0.475872 0.704871 0.004463 -6.908654 -12.749034 -31.165859 0.489194 8.824610 23.216002 -3.130964 14.052510 4.709760 0.046800 -1.395700 -3.838300 -2.222024 -2.683432 1.408774 34.184322 1.537687 12.532627 0.285071 -2.310449 10.555128 -0.890575 3.397551 -1.189717 -0.040400 -1.296700 3.565500 5.102699 2.472903 4.602083 1.849352 3.117159 -1.946648 2.768247 2.153726 -3.567706 -6.662865 -3.946645 -8.899094 4.769604 -4.812632 14.117313 2.920500 -2.589500 9.249000 -7.354845 3.181000 -2.401199 -83.549722 7.822874 17.184498 9.619999 -18.838647 -1.967239 -1.138535 -3.215927 12.354088 13.301656 21.325273 5.857100 -7.125000 0.000000 0.000000 -16.672700 54.593700 -4.013400 5.665614 -1.801328 -2.142580 77.651458 5.804880 21.898494 -18.306344 26.887667 -5.960378 1.063504 -0.120948 4.661296 -15.218536 8.909614 -2.588600 7.125000 0.000000 0.000000 7.633100 -20.748800 4.473100 
64.509570 105.250644 -149.582580 -5.254396 -10.249317 3.605743 0.290861 0.609609 -0.134319 -5.619673 -16.155943 -30.781989 -0.488455 6.715089 17.187675 -4.121280 16.383467 -2.114184 0.321600 -3.645100 -10.080200 -2.153831 -2.731727 1.512397 32.646241 1.034273 15.874795 0.344630 -1.951730 9.747257 -1.029680 4.452591 0.384475 -0.008000 -0.578900 1.590900 4.991039 2.995331 3.861181 1.628572 3.715354 -2.043265 2.106858 2.485823 -3.453056 -6.527476 -3.741079 -9.061266 4.868186 -4.560269 14.127713 2.977400 -2.454100 9.270000 -7.389607 3.283801 -2.428058 -84.170717 9.599807 11.999166 9.034742 -17.811346 -1.576221 -1.217933 -3.574151 13.902273 13.323730 24.913884 6.683100 -7.125000 0.000000 0.000000 -19.143600 58.378400 -6.415600 5.495517 -1.831030 -2.163383 77.634228 7.069152 21.856865 -19.405724 28.214806 -6.628335 1.056058 -0.164624 4.545058 -15.430377 9.709734 -2.869300 7.125000 0.000000 0.000000 7.471000 -19.868100 4.525500 
64.019934 104.607426 -143.245584 -5.232948 -10.852377 3.007462 0.267143 0.602012 -0.060375 -9.129347 -10.044226 -31.564902 -0.662373 6.453393 16.744289 -2.521833 11.411392 1.636562 0.662200 -5.204300 -14.492100 -2.221964 -2.712314 1.504536 32.239674 1.067458 17.879585 -0.072033 -3.378246 13.891610 -1.223899 5.912646 2.538270 -0.031200 1.139600 -3.132900 5.217870 3.252786 4.747738 1.566438 4.144974 -1.963779 1.594097 2.694439 -3.675734 -6.041254 -3.838526 -9.098884 4.385198 -4.739972 13.762114 2.649000 -2.538200 9.087400 -7.534422 3.260884 -2.263416 -84.585039 9.440027 6.227749 7.639767 -15.117126 -0.973585 -1.360121 -3.420660 14.663605 13.581977 23.581076 6.556700 -7.125000 0.000000 0.000000 -17.804500 57.082000 -5.386500 5.496636 -1.833852 -2.172211 77.733127 8.273785 20.503554 -19.994664 28.801556 -6.925667 1.178392 -0.182528 3.769816 -16.870681 10.105520 -3.289200 7.125000 0.000000 0.000000 6.357900 -19.347200 3.916600 
63.462108 104.473494 -136.375338 -4.897773 -10.590233 2.259922 0.378430 0.667141 0.067522 -12.023330 -7.657473 -31.461848 0.007978 8.066376 21.621941 -1.430178 8.272848 6.210119 0.044800 -1.366300 -3.757400 -2.320406 -2.693972 1.422692 31.251667 0.172156 17.974394 -0.810730 -5.400906 19.943851 -1.384203 7.480354 9.803178 -0.011500 0.693300 -1.905200 5.171408 3.244080 4.653440 1.519009 4.105266 -1.580917 1.385884 2.635267 -2.141280 -6.973300 -4.520827 -12.467375 5.074970 -5.434633 15.509775 3.012100 -2.825800 10.832600 -7.712309 3.301503 -2.112451 -84.907366 7.994582 0.330070 6.462452 -12.708319 -0.571200 -1.673030 -2.948193 19.097318 13.929484 20.711826 6.057900 -7.125000 0.000000 0.000000 -15.513900 54.092200 -3.532100 5.507337 -1.830416 -2.229628 77.643151 9.611310 19.159978 -20.512066 29.367852 -7.222010 1.225359 0.001614 1.336291 -17.134288 8.999539 -2.942700 7.125000 0.000000 0.000000 6.145500 -20.623300 3.607600 
